<?xml version="1.0" standalone="no"?>
<!DOCTYPE svg PUBLIC "-//W3C//DTD SVG 20010904//EN"
 "http://www.w3.org/TR/2001/REC-SVG-20010904/DTD/svg10.dtd">
<svg version="1.0" xmlns="http://www.w3.org/2000/svg"
 width="72.000000pt" height="66.000000pt" viewBox="0 0 72.000000 66.000000"
 preserveAspectRatio="xMidYMid meet">

<g transform="translate(0.000000,66.000000) scale(0.100000,-0.100000)"
fill="#000000" stroke="none">
<path d="M0 330 l0 -330 360 0 360 0 0 330 0 330 -360 0 -360 0 0 -330z m422
35 l97 -165 -34 0 c-30 0 -37 6 -65 55 -17 30 -35 57 -39 59 -4 3 -15 -9 -25
-25 -16 -28 -16 -32 -2 -54 22 -33 21 -35 -14 -35 -26 0 -35 8 -62 51 l-31 51
-29 -51 c-26 -45 -33 -51 -63 -51 l-34 0 56 98 c31 53 60 101 64 106 4 5 21
-13 37 -40 l30 -48 17 36 c17 35 17 36 -10 82 -23 40 -26 51 -17 72 7 13 15
24 19 24 5 0 52 -75 105 -165z"/>
</g>
</svg>
